<svg xmlns="http://www.w3.org/2000/svg" xmlns:xlink="http://www.w3.org/1999/xlink" width="641" height="597" viewBox="0 0 641 597">
  <defs>
    <style>
      .cls-1 {
        clip-path: url(#clip-Active_Notification);
      }

      .cls-2 {
        fill: #f5f5f5;
      }

      .cls-3 {
        fill: #f94545;
      }
    </style>
    <clipPath id="clip-Active_Notification">
      <rect width="641" height="597"/>
    </clipPath>
  </defs>
  <g id="Active_Notification" data-name="Active Notification" class="cls-1">
    <path id="Subtraction_49" data-name="Subtraction 49" class="cls-2" d="M-14570.059,655.595a85.591,85.591,0,0,1-20.011-2.229,63.218,63.218,0,0,1-15.456-5.877,55.629,55.629,0,0,1-19.569-17.833,64.53,64.53,0,0,1-8.328-17.833,50.354,50.354,0,0,1-1.741-8.106h126.327v.012a49.63,49.63,0,0,1-1.137,8.094,61.416,61.416,0,0,1-2.429,8.309,56.81,56.81,0,0,1-4.566,9.524,49.828,49.828,0,0,1-18.235,17.833,58.623,58.623,0,0,1-15.014,5.877A83.464,83.464,0,0,1-14570.059,655.595Zm278.288-68H-14824.1a24.746,24.746,0,0,1-4.2-1.444,35.49,35.49,0,0,1-9.248-5.9,36.891,36.891,0,0,1-9.248-12.69,53.152,53.152,0,0,1-4.2-21.829c0-8.267,1.414-15.4,4.2-21.194a29.733,29.733,0,0,1,9.248-11.291,29.349,29.349,0,0,1,9.248-4.5,21.839,21.839,0,0,1,4.2-.808h532.328a12.7,12.7,0,0,1,1.4-.064,22.34,22.34,0,0,1,6.288.936,22.077,22.077,0,0,1,8.463,4.715,28.128,28.128,0,0,1,7.43,11.352c2.116,5.659,3.189,12.673,3.189,20.849,0,9.375-1.407,17.409-4.184,23.879a31.486,31.486,0,0,1-9.2,12.463,26.581,26.581,0,0,1-9.2,4.756A19.245,19.245,0,0,1-14291.771,587.59Zm-25.292-79.879h-485.6v-.024c-.018-1.506-.133-15.336,1.127-36.779.775-13.207,1.914-26.661,3.384-39.987,1.835-16.649,4.2-33.145,7.021-49.028,7.184-40.42,17.353-77.138,30.225-109.135a353.13,353.13,0,0,1,25.839-52.083,272.023,272.023,0,0,1,16.178-23.665,230.034,230.034,0,0,1,18.569-21.413,196.858,196.858,0,0,1,26.913-22.9,178.036,178.036,0,0,1,31.258-17.578,179.944,179.944,0,0,1,35.925-11.271,206.2,206.2,0,0,1,40.917-3.977c1.245,0,2.459.01,3.712.03a222.952,222.952,0,0,1,28.7,2.288A119.857,119.857,0,0,0-14558,196a121.135,121.135,0,0,0,121,121,120.839,120.839,0,0,0,80.28-30.465,546.647,546.647,0,0,1,23.239,78.915c4.964,22.7,8.914,46.623,11.739,71.1,2.513,21.775,3.651,39.963,4.164,51.388.558,12.422.517,19.7.516,19.773Z" transform="translate(14885 -87)"/>
    <circle id="Ellipse_47" data-name="Ellipse 47" class="cls-3" cx="98" cy="98" r="98" transform="translate(350 11)"/>
  </g>
</svg>
