<svg xmlns="http://www.w3.org/2000/svg" xmlns:xlink="http://www.w3.org/1999/xlink" width="641" height="597" viewBox="0 0 641 597">
  <defs>
    <style>
      .cls-1 {
        clip-path: url(#clip-Active_Message);
      }

      .cls-2 {
        fill: #fff;
      }

      .cls-3 {
        fill: #f8d756;
      }

      .cls-4 {
        fill: #f94545;
      }
    </style>
    <clipPath id="clip-Active_Message">
      <rect width="641" height="597"/>
    </clipPath>
  </defs>
  <g id="Active_Message" data-name="Active Message" class="cls-1">
    <path id="Subtraction_52" data-name="Subtraction 52" class="cls-2" d="M-17003.5-215a326.436,326.436,0,0,1-59.756-5.5,316.14,316.14,0,0,1-55.656-15.762,306.58,306.58,0,0,1-50.365-24.94,294.605,294.605,0,0,1-43.881-33.031,279.5,279.5,0,0,1-36.205-40.034,263.9,263.9,0,0,1-27.338-45.949,252.05,252.05,0,0,1-17.277-50.776A249.482,249.482,0,0,1-17300-485.5a249.469,249.469,0,0,1,6.023-54.514,252.039,252.039,0,0,1,17.277-50.775,263.893,263.893,0,0,1,27.338-45.948,279.5,279.5,0,0,1,36.205-40.033,294.62,294.62,0,0,1,43.881-33.031,306.583,306.583,0,0,1,50.365-24.94,316.14,316.14,0,0,1,55.656-15.762,326.44,326.44,0,0,1,59.756-5.5,326.419,326.419,0,0,1,59.754,5.5,316.065,316.065,0,0,1,55.656,15.762,306.583,306.583,0,0,1,50.365,24.94,294.62,294.62,0,0,1,43.881,33.031,279.5,279.5,0,0,1,36.205,40.033,263.893,263.893,0,0,1,27.338,45.948,252.039,252.039,0,0,1,17.277,50.775A249.469,249.469,0,0,1-16707-485.5a249.386,249.386,0,0,1-7.029,58.824,253.156,253.156,0,0,1-20.086,54.344A131.119,131.119,0,0,0-16842-429c-72.232,0-131,58.768-131,131a129.934,129.934,0,0,0,25.836,78.124A326.884,326.884,0,0,1-17003.5-215Z" transform="translate(17324 762)"/>
    <g id="Group_19" data-name="Group 19" transform="translate(-1430 -122)">
      <g id="Group_18" data-name="Group 18" transform="translate(1454 126)">
        <g id="Group_17" data-name="Group 17" transform="translate(67.728 450.101)">
          <path id="Path_37" data-name="Path 37" class="cls-2" d="M7454.455,1288.7l118.869,57.87s-123.678,97.823-135.074,71.832S7454.455,1288.7,7454.455,1288.7Z" transform="translate(-7427.429 -1284.363)"/>
        </g>
      </g>
      <path id="Path_15" data-name="Path 15" class="cls-3" d="M4072.452,773.571l105.1-33.472-24.575-30.684s-2.755-2.284,0-5.676c2.729-3.391,63.025-79.248,63.025-79.248s2.336-3.908,5.827.663c3.513,4.571,81.3,102.44,81.3,102.44s3.844,4.86,7.695,0,95.1-119.651,95.1-119.651l30.412,37.265,21.217-133.137L4352.836,543.4l25.933,31.476-69.7,87.693s-2.093,2.818-4.933-.487-82.556-103.9-82.556-103.9-2-4.179-4.915,0c-2.934,4.18-92.432,116.243-92.432,116.243l-29.392-35.767Z" transform="matrix(1, 0.017, -0.017, 1, -2508.715, -313.68)"/>
    </g>
    <circle id="Ellipse_53" data-name="Ellipse 53" class="cls-4" cx="98" cy="98" r="98" transform="translate(384 364)"/>
  </g>
</svg>
