<svg xmlns="http://www.w3.org/2000/svg" xmlns:xlink="http://www.w3.org/1999/xlink" width="641" height="597" viewBox="0 0 641 597">
  <defs>
    <style>
      .cls-1 {
        clip-path: url(#clip-Artboard_10);
      }

      .cls-2 {
        fill: #fff;
      }

      .cls-3, .cls-4 {
        fill: #fce054;
      }

      .cls-3 {
        opacity: 0.97;
      }
    </style>
    <clipPath id="clip-Artboard_10">
      <rect width="641" height="597"/>
    </clipPath>
  </defs>
  <g id="Artboard_10" data-name="Artboard – 10" class="cls-1">
    <g id="Group_93" data-name="Group 93">
      <path id="Union_14" data-name="Union 14" class="cls-2" d="M-16490.221,1343.72l-178.268-90.709-1.74-162.957a15.586,15.586,0,0,1-2.795.251,15.519,15.519,0,0,1-3.775-.464l-11.391,163.118-177.01,90.76,26.555-199.869.039.03,152.3-61.084a15.383,15.383,0,0,1-2.094-6.03l-156.768,46.675v.06L-16984,986.12l197.152-36.35,101.916,115.112a15.572,15.572,0,0,1,4.844-3.877L-16773.5,939.89-16676.633,762l97.664,178.046-.018,0-87.18,120.85a15.553,15.553,0,0,1,5.418,4.442l95.436-115.4-.051-.1,194.448,36.273-139.4,138.209h0v0l.018-.081-147.344-47.465a15.4,15.4,0,0,1-2.184,6.168l143.4,57.844,26.213,202.93Z" transform="translate(17010.023 -755.806)"/>
      <path id="Subtraction_46" data-name="Subtraction 46" class="cls-3" d="M-16984,1042.06l9.1-78.748.051-.006c2.064-.258,21-2.718,50.041-9.4a774.01,774.01,0,0,0,119.727-38.174l-2.437,35.208h-1.041L-16984,1042.06Zm374.584,0h0l-178.264-90.418-.154-.985-.383-42.134c49.109-21.779,93.221-48.061,131.109-78.118l21.512,8.582-.037.106,26.219,202.968v0h0Zm-19.922-219.444h0l-.729-.228-12.416-4.031a481.884,481.884,0,0,0,37.918-36.155c.281,0,.836-.533,1.875-1.547l.014-.008a63.41,63.41,0,0,1,10.617-8.525A85.84,85.84,0,0,1-16568.717,762c.178.463-41.547,41.634-59.5,59.313l-1.01,1-.115.3Z" transform="translate(17129.316 -454.063)"/>
    </g>
    <path id="Subtraction_44" data-name="Subtraction 44" class="cls-4" d="M-16983.98,857.969v0l83.369-15.334,7.266,7.918Zm102-18.1h0v0l-5.861-7.422L-16848.7,762Z" transform="translate(17129.316 -642.214)"/>
  </g>
</svg>
