<svg xmlns="http://www.w3.org/2000/svg" xmlns:xlink="http://www.w3.org/1999/xlink" width="641" height="597" viewBox="0 0 641 597">
  <defs>
    <style>
      .cls-1 {
        clip-path: url(#clip-Edit);
      }

      .cls-2 {
        fill: #707070;
      }

      .cls-3 {
        fill: #9c9a9a;
      }
    </style>
    <clipPath id="clip-Edit">
      <rect width="641" height="597"/>
    </clipPath>
  </defs>
  <g id="Edit" class="cls-1">
    <path id="Subtraction_38" data-name="Subtraction 38" class="cls-2" d="M292.07,91H33A32.972,32.972,0,0,1,0,58V33A32.972,32.972,0,0,1,33,0h357.1L292.07,91ZM512,91H476.7l67.894-63.2A33.374,33.374,0,0,1,545,33V58a32.972,32.972,0,0,1-33,33Z" transform="translate(29 137)"/>
    <path id="Subtraction_36" data-name="Subtraction 36" class="cls-2" d="M338,91H33A32.972,32.972,0,0,1,0,58V33A32.972,32.972,0,0,1,33,0H144.638c-8.019,17.149-13.915,31.5-17.523,42.663-4.493,13.9-5.431,22.86-2.789,26.637,1.515,2.165,5.045,3.263,10.491,3.263,17.025,0,50.437-10.759,75.47-19.785,27.149-9.789,50.519-19.687,50.752-19.785L296.916,0H338a32.972,32.972,0,0,1,33,33V58a32.972,32.972,0,0,1-33,33Z" transform="translate(29 397)"/>
    <rect id="Rectangle_66" data-name="Rectangle 66" class="cls-2" width="163" height="91" rx="33" transform="translate(411 397)"/>
    <rect id="Rectangle_64" data-name="Rectangle 64" class="cls-2" width="89" height="92" rx="33" transform="translate(29 266)"/>
    <path id="Subtraction_37" data-name="Subtraction 37" class="cls-2" d="M63.679,91H33A32.973,32.973,0,0,1,0,58V33A32.972,32.972,0,0,1,33,0H150.847L74.676,70.561c-.045.08-4.661,8.356-11,20.439ZM405,91H238.025L335.977,0H405a32.972,32.972,0,0,1,33,33V58a32.972,32.972,0,0,1-33,33Z" transform="translate(129 266)"/>
    <path id="Subtraction_35" data-name="Subtraction 35" class="cls-3" d="M5.59,413.582a7.73,7.73,0,0,1-4.022-.807C.425,412.037-.1,410.338.015,407.725a43.13,43.13,0,0,1,1.91-9.713C3.964,391,7.649,381.5,12.881,369.788c9.037-20.24,20.623-42.465,26.727-53.912.065,1.241.162,2.471.293,3.655a62.43,62.43,0,0,0,6.287,21.339A65.334,65.334,0,0,0,59.1,358.429a69.8,69.8,0,0,0,18.061,12.653,72.492,72.492,0,0,0,21.74,6.627,74.733,74.733,0,0,0,8.159.686c-.765.243-1.535.463-2.284.655C94.2,383.627,73.5,392.417,53.664,399.86,29.421,408.965,13.248,413.582,5.59,413.582Zm114.751-42.264h0a76.06,76.06,0,0,1-10.447-.737c-33.529-4.709-59.438-30.926-63.012-63.754-.153-1.411-.264-2.809-.331-4.157a40.347,40.347,0,0,1,4.543-5l272.385-253.9a62.593,62.593,0,0,0,6.247,35.291,65.206,65.206,0,0,0,12.91,17.554,69.706,69.706,0,0,0,18.057,12.653A72.672,72.672,0,0,0,382.43,115.9h.01a74.105,74.105,0,0,0,10.326.718c.357,0,.695,0,1,0L122.721,369.263c-.753.7-1.555,1.4-2.38,2.055Zm281.1-261.856v0a74.937,74.937,0,0,1-8.012-.689c-33.529-4.713-59.44-30.93-63.014-63.754A72.877,72.877,0,0,1,330,37.688L343.006,25.56a62.67,62.67,0,0,0,6.314,34.705,65.251,65.251,0,0,0,12.912,17.554,69.554,69.554,0,0,0,18.061,12.653A72.486,72.486,0,0,0,402.024,97.1a74.625,74.625,0,0,0,10.338.718c.523,0,1.054,0,1.581-.014l-12.5,11.653Zm20.142-18.778h0a75.286,75.286,0,0,1-8.559-.708c-33.531-4.713-59.442-30.93-63.016-63.754-.244-2.279-.386-4.567-.412-6.8l8.916-8.315A41.589,41.589,0,0,1,386.988,0a42.163,42.163,0,0,1,15.755,3.025,40.869,40.869,0,0,1,13.74,9.056l14.671,14.665a39.25,39.25,0,0,1,8.765,13.23,38.436,38.436,0,0,1-.533,29.781,39.282,39.282,0,0,1-9.245,12.949l-8.557,7.977Z" transform="translate(168.355 43.095)"/>
  </g>
</svg>
