<svg xmlns="http://www.w3.org/2000/svg" xmlns:xlink="http://www.w3.org/1999/xlink" width="641" height="597" viewBox="0 0 641 597">
  <defs>
    <style>
      .cls-1 {
        clip-path: url(#clip-Help);
      }

      .cls-2 {
        fill: #707070;
        stroke: #707070;
      }

      .cls-3 {
        fill: #35badc;
      }

      .cls-4 {
        stroke: none;
      }

      .cls-5 {
        fill: none;
      }
    </style>
    <clipPath id="clip-Help">
      <rect width="641" height="597"/>
    </clipPath>
  </defs>
  <g id="Help" class="cls-1">
    <g id="Ellipse_56" data-name="Ellipse 56" class="cls-2" transform="translate(40 18)">
      <circle class="cls-4" cx="281" cy="281" r="281"/>
      <circle class="cls-5" cx="281" cy="281" r="280.5"/>
    </g>
    <path id="Subtraction_62" data-name="Subtraction 62" class="cls-3" d="M-18589.232-402.9h-31.9l-3.137-43.41v-2.878a35.868,35.868,0,0,1,1.471-10.361,32.569,32.569,0,0,1,4.412-9.12,79.813,79.813,0,0,1,14.906-15.95c6-4.958,12.51-9.973,19.354-14.906a159.45,159.45,0,0,0,19.35-16.476,81.336,81.336,0,0,0,14.906-20.525c3.9-7.638,5.881-16.788,5.881-27.2a46.263,46.263,0,0,0-4.447-20.4,47.164,47.164,0,0,0-12.023-15.559,53.492,53.492,0,0,0-17.916-9.8,70.526,70.526,0,0,0-22.094-3.4c-10.586,0-19.781,1.319-27.33,3.922a102.907,102.907,0,0,0-19.217,8.628,112.071,112.071,0,0,0-12.687,8.628c-3.207,2.6-5.891,3.922-7.975,3.922a11.276,11.276,0,0,1-5.816-1.5,12.89,12.89,0,0,1-4.383-4.511l-12.291-19.613a158.838,158.838,0,0,1,17.916-14.379,133.9,133.9,0,0,1,21.441-12.028,130.775,130.775,0,0,1,25.1-8.238,134.129,134.129,0,0,1,29.158-3.009,128.789,128.789,0,0,1,19.908,1.5,110.317,110.317,0,0,1,18.4,4.509,100.028,100.028,0,0,1,16.441,7.258,85.964,85.964,0,0,1,14.025,9.74,77.646,77.646,0,0,1,11.439,12.16,80.786,80.786,0,0,1,8.693,14.516,75.818,75.818,0,0,1,5.49,16.669,91.958,91.958,0,0,1,1.832,18.63,110.094,110.094,0,0,1-1.469,18.5,75.7,75.7,0,0,1-4.414,15.758,104.242,104.242,0,0,1-6.668,13.5,89.96,89.96,0,0,1-8.238,11.732,114.8,114.8,0,0,1-19.744,18.827c-7.184,5.346-13.912,10.405-20,15.037a131.3,131.3,0,0,0-15.949,14.121,27.427,27.427,0,0,0-7.717,15.691l-4.707,40.009h0v0Z" transform="translate(18916 773)"/>
    <circle id="Ellipse_62" data-name="Ellipse 62" class="cls-3" cx="30" cy="30" r="30" transform="translate(279 408)"/>
  </g>
</svg>
