<svg xmlns="http://www.w3.org/2000/svg" xmlns:xlink="http://www.w3.org/1999/xlink" width="641" height="597" viewBox="0 0 641 597">
  <defs>
    <style>
      .cls-1 {
        clip-path: url(#clip-Location);
      }

      .cls-2 {
        fill: none;
      }

      .cls-3 {
        fill: #7fc4de;
      }

      .cls-4, .cls-5 {
        stroke: none;
      }

      .cls-5 {
        fill: #707070;
      }
    </style>
    <clipPath id="clip-Location">
      <rect width="641" height="597"/>
    </clipPath>
  </defs>
  <g id="Location" class="cls-1">
    <g id="Group_70" data-name="Group 70" transform="translate(-11 -22)">
      <g id="Subtraction_27" data-name="Subtraction 27" class="cls-2" transform="translate(164.171 521.088)">
        <path class="cls-4" d="M182.188,84.345c-24.61,0-48.469-1.131-70.915-3.363a451.22,451.22,0,0,1-57.911-9.165c-16.716-3.922-29.852-8.495-39.042-13.59A39.55,39.55,0,0,1,3.7,50.2C1.245,47.384,0,44.486,0,41.58,0,36.714,3.451,31.942,10.259,27.4,16.848,23,26.419,18.9,38.7,15.224A328.045,328.045,0,0,1,81.834,5.88C98.539,3.287,116.814,1.373,136.151.192l.124.279,5.832,12.068c-35.89,1.547-68.412,5.25-91.575,10.43-11.575,2.589-20.591,5.476-26.8,8.581-6.419,3.213-9.675,6.587-9.675,10.03,0,2.027,1.146,4.053,3.4,6.021a36.965,36.965,0,0,0,9.76,5.608c8.439,3.557,20.519,6.752,35.906,9.5,31.643,5.643,73.716,8.75,118.467,8.75s86.826-3.108,118.471-8.75c15.385-2.744,27.467-5.939,35.906-9.5a36.966,36.966,0,0,0,9.76-5.608c2.259-1.968,3.4-3.994,3.4-6.021,0-3.486-3.335-6.9-9.915-10.149-6.358-3.139-15.586-6.051-27.428-8.655-23.737-5.219-56.945-8.9-93.5-10.352L224.765.471,224.971,0c19.746,1.118,38.426,2.992,55.518,5.569a336.341,336.341,0,0,1,44.171,9.357c12.605,3.707,22.42,7.841,29.175,12.286,6.988,4.6,10.533,9.435,10.533,14.368,0,2.9-1.243,5.8-3.7,8.616a39.508,39.508,0,0,1-10.621,8.031c-9.184,5.093-22.318,9.666-39.038,13.59A451.22,451.22,0,0,1,253.1,80.982C230.649,83.214,206.79,84.345,182.188,84.345Z"/>
        <path class="cls-5" d="M 182.1880798339844 84.34514617919922 C 157.5782012939453 84.34514617919922 133.7192535400391 83.21361541748047 111.2726058959961 80.98184967041016 C 89.58302307128906 78.83179473876953 70.09943389892578 75.74814605712891 53.36113739013672 71.81667327880859 C 36.64519882202148 67.89450073242188 23.50896263122559 63.32214736938477 14.31866836547852 58.22667694091797 C 9.678727149963379 55.65196990966797 6.107197284698486 52.95014572143555 3.701785802841187 50.19614791870117 C 1.245432734489441 47.38444137573242 2.099609446304385e-05 44.48561477661133 2.099609446304385e-05 41.58002853393555 C 2.099609446304385e-05 36.71426391601563 3.451432704925537 31.94173431396484 10.25872707366943 27.39514541625977 C 16.84819793701172 22.99549865722656 26.41908073425293 18.90038108825684 38.70061111450195 15.22361660003662 C 50.88037490844727 11.57596969604492 65.39237213134766 8.43232250213623 81.83354949951172 5.879851818084717 C 98.53931427001953 3.286910772323608 116.814079284668 1.373263716697693 136.1511383056641 0.1921460628509521 L 136.2752532958984 0.4713813662528992 L 142.1077270507813 12.53949928283691 C 106.2175521850586 14.08608722686768 73.69537353515625 17.78949928283691 50.53237533569336 22.96914672851563 C 38.9570198059082 25.55791091918945 29.94172668457031 28.44496917724609 23.73484420776367 31.55008697509766 C 17.31625556945801 34.76279449462891 14.0601978302002 38.13726425170898 14.0601978302002 41.58002853393555 C 14.0601978302002 43.60702896118164 15.20590305328369 45.63279342651367 17.46484375 47.60102844238281 C 19.66472625732422 49.51920318603516 22.94931602478027 51.40596771240234 27.22496223449707 53.20908737182617 C 35.66431427001953 56.76620483398438 47.7443733215332 59.96114730834961 63.13143157958984 62.70520401000977 C 94.77442932128906 68.34767913818359 136.8471374511719 71.45520782470703 181.597900390625 71.45520782470703 C 226.3507843017578 71.45520782470703 268.4234924316406 68.34767913818359 300.0685424804688 62.70520401000977 C 315.4535522460938 59.9615592956543 327.5356750488281 56.76655960083008 335.9750061035156 53.20908737182617 C 340.2506713867188 51.40596771240234 343.5351867675781 49.51920318603516 345.7351379394531 47.60102844238281 C 347.9940185546875 45.63279342651367 349.1397399902344 43.60702896118164 349.1397399902344 41.58002853393555 C 349.1397399902344 38.09426498413086 345.8043212890625 34.67973327636719 339.2249755859375 31.4311466217041 C 332.8674926757813 28.29185104370117 323.6385498046875 25.37985229492188 311.7965393066406 22.77585220336914 C 288.0596618652344 17.55661582946777 254.8516693115234 13.88008689880371 218.2919616699219 12.42349910736084 L 224.7654876708984 0.4713225364685059 L 224.9710235595703 2.841904642991722e-05 C 244.7171325683594 1.117910742759705 263.3969116210938 2.991793155670166 280.4893188476563 5.568793296813965 C 297.3090209960938 8.102792739868164 312.1710205078125 11.2510871887207 324.6600646972656 14.92614650726318 C 337.2652587890625 18.63326454162598 347.080322265625 22.76691055297852 353.8345947265625 27.21208763122559 C 360.8230285644531 31.81320571899414 364.3680114746094 36.64732360839844 364.3680114746094 41.58002853393555 C 364.3680114746094 44.48202896118164 363.1246643066406 47.3809700012207 360.6703796386719 50.19614791870117 C 358.264892578125 52.95096969604492 354.6913757324219 55.65291213989258 350.0494384765625 58.22667694091797 C 340.8652648925781 63.31996917724609 327.7310180664063 67.89231872558594 311.0110168457031 71.81667327880859 C 294.2727355957031 75.74814605712891 274.7890930175781 78.83179473876953 253.0995483398438 80.98184967041016 C 230.6487884521484 83.21361541748047 206.7898406982422 84.34514617919922 182.1880798339844 84.34514617919922 Z"/>
      </g>
      <g id="Group_68" data-name="Group 68" transform="translate(162.998 28.999)">
        <path id="Subtraction_25" data-name="Subtraction 25" class="cls-3" d="M182.77,553.659,32.154,285.564A181.354,181.354,0,0,1,0,182.184a183.475,183.475,0,0,1,3.7-36.716A181.166,181.166,0,0,1,31.114,80.324a182.705,182.705,0,0,1,80.159-66.007A181.285,181.285,0,0,1,145.47,3.7a183.968,183.968,0,0,1,73.435,0,181.193,181.193,0,0,1,65.144,27.413,182.716,182.716,0,0,1,66.007,80.156,181.361,181.361,0,0,1,10.615,34.2,183.874,183.874,0,0,1-1.013,78.083,181.162,181.162,0,0,1-13.442,38.018l-1.437,3.711L182.77,553.659ZM181.6,29.289c-82.69,0-149.965,67.275-149.965,149.966S98.912,329.222,181.6,329.222s149.965-67.275,149.965-149.966S264.292,29.289,181.6,29.289Z" transform="translate(0)"/>
        <circle id="Ellipse_38" data-name="Ellipse 38" class="cls-3" cx="121" cy="121" r="121" transform="translate(60.002 58.001)"/>
      </g>
    </g>
  </g>
</svg>
