<svg xmlns="http://www.w3.org/2000/svg" xmlns:xlink="http://www.w3.org/1999/xlink" width="641" height="597" viewBox="0 0 641 597">
  <defs>
    <style>
      .cls-1 {
        clip-path: url(#clip-Message);
      }

      .cls-2 {
        fill: #fff;
      }

      .cls-3 {
        fill: #f8d756;
      }
    </style>
    <clipPath id="clip-Message">
      <rect width="641" height="597"/>
    </clipPath>
  </defs>
  <g id="Message" class="cls-1">
    <g id="Group_19" data-name="Group 19" transform="translate(-1433 -119)">
      <g id="Group_18" data-name="Group 18" transform="translate(1454 126)">
        <ellipse id="Ellipse_6" data-name="Ellipse 6" class="cls-2" cx="296.5" cy="270.5" rx="296.5" ry="270.5"/>
        <g id="Group_17" data-name="Group 17" transform="translate(67.728 450.101)">
          <path id="Path_37" data-name="Path 37" class="cls-2" d="M7454.455,1288.7l118.869,57.87s-123.678,97.823-135.074,71.832S7454.455,1288.7,7454.455,1288.7Z" transform="translate(-7427.429 -1284.363)"/>
        </g>
      </g>
      <path id="Path_15" data-name="Path 15" class="cls-3" d="M4072.452,773.571l105.1-33.472-24.575-30.684s-2.755-2.284,0-5.676c2.729-3.391,63.025-79.248,63.025-79.248s2.336-3.908,5.827.663c3.513,4.571,81.3,102.44,81.3,102.44s3.844,4.86,7.695,0,95.1-119.651,95.1-119.651l30.412,37.265,21.217-133.137L4352.836,543.4l25.933,31.476-69.7,87.693s-2.093,2.818-4.933-.487-82.556-103.9-82.556-103.9-2-4.179-4.915,0c-2.934,4.18-92.432,116.243-92.432,116.243l-29.392-35.767Z" transform="matrix(1, 0.017, -0.017, 1, -2508.715, -313.68)"/>
    </g>
  </g>
</svg>
