<svg xmlns="http://www.w3.org/2000/svg" xmlns:xlink="http://www.w3.org/1999/xlink" width="641" height="597" viewBox="0 0 641 597">
  <defs>
    <style>
      .cls-1 {
        clip-path: url(#clip-My_Account);
      }

      .cls-2, .cls-7 {
        fill: none;
      }

      .cls-2, .cls-4 {
        stroke: #707070;
      }

      .cls-2 {
        stroke-width: 24px;
      }

      .cls-3, .cls-4 {
        fill: #707070;
      }

      .cls-5 {
        fill: #35badc;
      }

      .cls-6 {
        stroke: none;
      }
    </style>
    <clipPath id="clip-My_Account">
      <rect width="641" height="597"/>
    </clipPath>
  </defs>
  <g id="My_Account" data-name="My Account" class="cls-1">
    <g id="Ellipse_63" data-name="Ellipse 63" class="cls-2" transform="translate(27 6)">
      <circle class="cls-6" cx="292" cy="292" r="292"/>
      <circle class="cls-7" cx="292" cy="292" r="280"/>
    </g>
    <circle id="Ellipse_64" data-name="Ellipse 64" class="cls-3" cx="152" cy="152" r="152" transform="translate(169 55)"/>
    <path id="Subtraction_64" data-name="Subtraction 64" class="cls-4" d="M-19903.041-215.214h0L-19996.5-233.5l-96.51-72.134v-.007a157.4,157.4,0,0,1,5.83-16.121,273.214,273.214,0,0,0,20.371,22.055,275.716,275.716,0,0,0,40.775,32.6,278.558,278.558,0,0,0,46.795,24.619,280.79,280.79,0,0,0,51.717,15.558A286.092,286.092,0,0,0-19872-221.5a286.063,286.063,0,0,0,55.523-5.425,280.719,280.719,0,0,0,51.717-15.558,278.792,278.792,0,0,0,46.8-24.619,275.554,275.554,0,0,0,40.77-32.6,272.785,272.785,0,0,0,20.068-21.685c2.385,5.1,4.723,10.4,6.953,15.759h0s.006,0,.006,0c.174.558-99.307,69.208-103.543,72.13l-64,12.186ZM-19872-243.5a258.994,258.994,0,0,1-60.832-7.217,254.865,254.865,0,0,1-55.482-20.483,253.339,253.339,0,0,1-48.33-32,249.244,249.244,0,0,1-39.371-41.76,235.571,235.571,0,0,1,20.49-31.189,210.148,210.148,0,0,1,30.475-31.761,193.251,193.251,0,0,1,19.426-14.358,188.447,188.447,0,0,1,22.459-12.416,191.343,191.343,0,0,1,25.668-9.779,205.017,205.017,0,0,1,29.055-6.448c38.236-5.646,68.17-8.508,88.967-8.508,10.428,0,18.5.723,23.986,2.15,3.951,1.027,6.492,2.386,7.553,4.04a2.559,2.559,0,0,1,.389,2.317h.068a78.093,78.093,0,0,1,14.484,1.8,126.413,126.413,0,0,1,15,4.078,147.72,147.72,0,0,1,18.73,7.825,180.8,180.8,0,0,1,44.322,31.773,233.022,233.022,0,0,1,23.428,26.388,292.526,292.526,0,0,1,22.828,35.017,249.407,249.407,0,0,1-39.346,41.393,253.366,253.366,0,0,1-48.186,31.7,254.875,254.875,0,0,1-55.248,20.286A259.032,259.032,0,0,1-19872-243.5Z" transform="translate(20193 787)"/>
    <path id="Path_135" data-name="Path 135" class="cls-5" d="M20393.408,1095.27s62.129,74.387,70.336,73.019,84.256-75.208,84.256-75.208-77.963,48.521-84.256,48.795S20393.408,1095.27,20393.408,1095.27Z" transform="translate(-20148 -756)"/>
  </g>
</svg>
