<svg xmlns="http://www.w3.org/2000/svg" xmlns:xlink="http://www.w3.org/1999/xlink" width="641" height="597" viewBox="0 0 641 597">
  <defs>
    <style>
      .cls-1 {
        clip-path: url(#clip-Terms_and_condition_2);
      }

      .cls-2, .cls-7 {
        fill: none;
      }

      .cls-2, .cls-5 {
        stroke: #707070;
      }

      .cls-2 {
        stroke-width: 18px;
      }

      .cls-3 {
        fill: #35badc;
      }

      .cls-4 {
        fill: #807f7f;
      }

      .cls-5 {
        fill: #e4e4e4;
        stroke-width: 17px;
      }

      .cls-6 {
        stroke: none;
      }
    </style>
    <clipPath id="clip-Terms_and_condition_2">
      <rect width="641" height="597"/>
    </clipPath>
  </defs>
  <g id="Terms_and_condition_2" data-name="Terms and condition – 2" class="cls-1">
    <g id="Rectangle_165" data-name="Rectangle 165" class="cls-2" transform="translate(110 61)">
      <rect class="cls-6" width="428" height="487" rx="31"/>
      <rect class="cls-7" x="9" y="9" width="410" height="469" rx="22"/>
    </g>
    <rect id="Rectangle_151" data-name="Rectangle 151" class="cls-3" width="131" height="147" rx="15" transform="translate(157 126)"/>
    <rect id="Rectangle_152" data-name="Rectangle 152" class="cls-4" width="196" height="17" rx="8.5" transform="translate(318 141)"/>
    <rect id="Rectangle_153" data-name="Rectangle 153" class="cls-4" width="189" height="17" rx="8.5" transform="translate(318 210)"/>
    <rect id="Rectangle_164" data-name="Rectangle 164" class="cls-4" width="189" height="17" rx="8.5" transform="translate(318 245)"/>
    <rect id="Rectangle_154" data-name="Rectangle 154" class="cls-4" width="196" height="17" rx="8.5" transform="translate(318 177)"/>
    <rect id="Rectangle_155" data-name="Rectangle 155" class="cls-4" width="140" height="17" rx="8.5" transform="translate(367 321)"/>
    <rect id="Rectangle_157" data-name="Rectangle 157" class="cls-4" width="200" height="17" rx="8.5" transform="translate(157 321)"/>
    <rect id="Rectangle_156" data-name="Rectangle 156" class="cls-4" width="323" height="17" rx="8.5" transform="translate(157 363)"/>
    <rect id="Rectangle_160" data-name="Rectangle 160" class="cls-4" width="222" height="17" rx="8.5" transform="translate(284 405)"/>
    <rect id="Rectangle_163" data-name="Rectangle 163" class="cls-4" width="115" height="17" rx="8.5" transform="translate(156 405)"/>
    <rect id="Rectangle_162" data-name="Rectangle 162" class="cls-4" width="350" height="17" rx="8.5" transform="translate(156 447)"/>
    <rect id="Rectangle_161" data-name="Rectangle 161" class="cls-4" width="350" height="17" rx="8.5" transform="translate(157 363)"/>
    <g id="Ellipse_67" data-name="Ellipse 67" class="cls-5" transform="translate(405 19)">
      <circle class="cls-6" cx="102" cy="102" r="102"/>
      <circle class="cls-7" cx="102" cy="102" r="93.5"/>
    </g>
    <g id="Ellipse_68" data-name="Ellipse 68" class="cls-5" transform="translate(491 105)">
      <circle class="cls-6" cx="16" cy="16" r="16"/>
      <circle class="cls-7" cx="16" cy="16" r="7.5"/>
    </g>
    <rect id="Rectangle_158" data-name="Rectangle 158" class="cls-3" width="89" height="32" rx="16" transform="translate(491 105)"/>
    <rect id="Rectangle_159" data-name="Rectangle 159" class="cls-3" width="89" height="32" rx="16" transform="translate(490.5 136.5) rotate(-90)"/>
  </g>
</svg>
